# xmcd
# 
# Track frame offsets:
#     182
#     11520
#     21367
#     34207
#     46865
#     64502
#     79240
#     92040
#     104135
#     114135
#     124807
#     131407
#     142287
#     160245
#     173847
#     188167
# 
# Disc length: 2656
# 
# Revision: 8
# Processed by: cddbd v1.5.2PL0 Copyright (c) Steve Scherf et al.
# Submitted via: BonkEnc v1.0
# 
DISCID=d80a5e10
DTITLE=Various Artist - The story of the white Blues
DYEAR=0
DGENRE=Blues
TTITLE0=Eric Clapton - Snake Drive
TTITLE1=Eric Clapton - Tribute to Elmore
TTITLE2=John Mayall's Blues Breakers - On Top Of The World
TTITLE3=Earl Vince and The Valtants - Somebody's Gonna Get Their Head Kicked In Tonite
TTITLE4=Albert Lee - The Next Milestone
TTITLE5=Rod Stewart - So Much To Say
TTITLE6=Eric Clapton and Jimmy Page - Freight Loader
TTITLE7=Immediate All Stars Featuring Jeff Beck - Steelin'
TTITLE8=John Mayall's Blues Breakers - I'm Your Witchdoctor
TTITLE9=Eric Clapton - West Coast Idea
TTITLE10=Eric Clapton - Choker
TTITLE11=Immediate All Stars and Jeff Beck - Chuckles
TTITLE12=John Mayall's Blues Breakers - Telephone Blues
TTITLE13=Immediate All Stars - Piano Shuffle
TTITLE14=Eric Clapton and Jimmy Page - Draggin' My Tail
TTITLE15=Eric Clapton and Jimmy Page - Miles Road
EXTD=
EXTT0=E. Clapton
EXTT1=E.Clapton
EXTT2=J. Mayall's Blues Breakers
EXTT3=Earl Vince and The Valtans *Fleetwood Mac and Jeremy Spencer
EXTT4=Albert Lee
EXTT5=Rod Stewart
EXTT6=E. Clapton
EXTT7=Jeff Beck
EXTT8=J. Mayall's Blues Breakers
EXTT9=E. Clapton
EXTT10=E. Clapton
EXTT11=Jeff Beck
EXTT12=J. Mayall's Blues Breakers
EXTT13=All Stars
EXTT14=E. Clapton
EXTT15=E. Clapton
PLAYORDER=
